# xmcd
#
# Track frame offsets: 
#        150
#        20968
#        39781
#        54976
#        77193
#        94085
#        114801
#        134676
#        155439
#        172120
#        187736
#        204774
#        220226
#        240390
#        258310
#        280450
#
# Disc length: 3987 seconds
#
# Revision: 0
# Processed by: cddbd v1.5.1PL2 Copyright (c) Steve Scherf et al.
# Submitted via: ExactAudioCopy v0.95b3
#
DISCID=d50f9110
DTITLE=Various Artist - Krazy Love Vol. 3
DYEAR=2000
DGENRE=R&B
TTITLE0=Carl Thomas/I Wish
TTITLE1=Avant/Separated
TTITLE2=Gerald Levert/Mr. Too Dawn
TTITLE3=Phil Perry/Closer To Heaven
TTITLE4=Sam Salter/Ones My Shit
TTITLE5=J-Shin/Treat U Better
TTITLE6=Eric Benét with Roy Ayers/When You Think Of Me
TTITLE7=CoCo Brawn with Phat Cat Players/Sun Dres
TTITLE8=Mike E/Masterplan
TTITLE9=N-Toon/Ready
TTITLE10=Serenade/Givin' It Up
TTITLE11=Mint Condition/Is This Pain Our Please
TTITLE12=Trin-I-Tee/My Body
TTITLE13=Tamar/If You Don't Wanna Love Me
TTITLE14=Mary J. Blige/Give Me You
TTITLE15=L V/How Long
EXTD=
EXTT0=
EXTT1=
EXTT2=
EXTT3=
EXTT4=
EXTT5=
EXTT6=
EXTT7=
EXTT8=
EXTT9=
EXTT10=
EXTT11=
EXTT12=
EXTT13=
EXTT14=
EXTT15=
PLAYORDER=
